<mxfile host="Electron" modified="2024-03-31T18:55:42.610Z" agent="Mozilla/5.0 (X11; Linux x86_64) AppleWebKit/537.36 (KHTML, like Gecko) draw.io/24.1.0 Chrome/120.0.6099.109 Electron/28.1.0 Safari/537.36" etag="SRvVMPXicYeiKp9HJUyu" version="24.1.0" type="device">
  <diagram name="Page-1" id="IMVei5Pbor2gpIeCKELP">
    <mxGraphModel dx="1912" dy="1117" grid="1" gridSize="10" guides="1" tooltips="1" connect="1" arrows="1" fold="1" page="1" pageScale="1" pageWidth="700" pageHeight="550" math="0" shadow="0">
      <root>
        <mxCell id="0" />
        <mxCell id="1" parent="0" />
        <mxCell id="9yKTk0pFDlqX_1yLN8jk-94" value="Users" style="shape=table;startSize=25;container=1;collapsible=0;childLayout=tableLayout;fixedRows=1;rowLines=1;fontStyle=1;align=center;resizeLast=1;shadow=1;labelBackgroundColor=none;labelBorderColor=none;whiteSpace=wrap;" vertex="1" parent="1">
          <mxGeometry x="29" y="11" width="336" height="151" as="geometry" />
        </mxCell>
        <mxCell id="9yKTk0pFDlqX_1yLN8jk-95" style="shape=tableRow;horizontal=0;startSize=0;swimlaneHead=0;swimlaneBody=0;fillColor=none;collapsible=0;dropTarget=0;points=[[0,0.5],[1,0.5]];portConstraint=eastwest;top=0;left=0;right=0;bottom=0;shadow=1;labelBackgroundColor=none;labelBorderColor=none;whiteSpace=wrap;" vertex="1" parent="9yKTk0pFDlqX_1yLN8jk-94">
          <mxGeometry y="25" width="336" height="21" as="geometry" />
        </mxCell>
        <mxCell id="9yKTk0pFDlqX_1yLN8jk-96" value="int" style="shape=partialRectangle;connectable=0;fillColor=none;top=0;left=0;bottom=0;right=0;align=left;spacingLeft=2;overflow=hidden;fontSize=11;shadow=1;labelBackgroundColor=none;labelBorderColor=none;whiteSpace=wrap;" vertex="1" parent="9yKTk0pFDlqX_1yLN8jk-95">
          <mxGeometry width="54" height="21" as="geometry">
            <mxRectangle width="54" height="21" as="alternateBounds" />
          </mxGeometry>
        </mxCell>
        <mxCell id="9yKTk0pFDlqX_1yLN8jk-97" value="user_id" style="shape=partialRectangle;connectable=0;fillColor=none;top=0;left=0;bottom=0;right=0;align=left;spacingLeft=2;overflow=hidden;fontSize=11;shadow=1;labelBackgroundColor=none;labelBorderColor=none;whiteSpace=wrap;" vertex="1" parent="9yKTk0pFDlqX_1yLN8jk-95">
          <mxGeometry x="54" width="78" height="21" as="geometry">
            <mxRectangle width="78" height="21" as="alternateBounds" />
          </mxGeometry>
        </mxCell>
        <mxCell id="9yKTk0pFDlqX_1yLN8jk-98" value="The primary key, auto-incrementing" style="shape=partialRectangle;connectable=0;fillColor=none;top=0;left=0;bottom=0;right=0;align=left;spacingLeft=2;overflow=hidden;fontSize=11;shadow=1;labelBackgroundColor=none;labelBorderColor=none;whiteSpace=wrap;" vertex="1" parent="9yKTk0pFDlqX_1yLN8jk-95">
          <mxGeometry x="132" width="204" height="21" as="geometry">
            <mxRectangle width="204" height="21" as="alternateBounds" />
          </mxGeometry>
        </mxCell>
        <mxCell id="9yKTk0pFDlqX_1yLN8jk-99" style="shape=tableRow;horizontal=0;startSize=0;swimlaneHead=0;swimlaneBody=0;fillColor=none;collapsible=0;dropTarget=0;points=[[0,0.5],[1,0.5]];portConstraint=eastwest;top=0;left=0;right=0;bottom=0;shadow=1;labelBackgroundColor=none;labelBorderColor=none;whiteSpace=wrap;" vertex="1" parent="9yKTk0pFDlqX_1yLN8jk-94">
          <mxGeometry y="46" width="336" height="21" as="geometry" />
        </mxCell>
        <mxCell id="9yKTk0pFDlqX_1yLN8jk-100" value="string" style="shape=partialRectangle;connectable=0;fillColor=none;top=0;left=0;bottom=0;right=0;align=left;spacingLeft=2;overflow=hidden;fontSize=11;shadow=1;labelBackgroundColor=none;labelBorderColor=none;whiteSpace=wrap;" vertex="1" parent="9yKTk0pFDlqX_1yLN8jk-99">
          <mxGeometry width="54" height="21" as="geometry">
            <mxRectangle width="54" height="21" as="alternateBounds" />
          </mxGeometry>
        </mxCell>
        <mxCell id="9yKTk0pFDlqX_1yLN8jk-101" value="username" style="shape=partialRectangle;connectable=0;fillColor=none;top=0;left=0;bottom=0;right=0;align=left;spacingLeft=2;overflow=hidden;fontSize=11;shadow=1;labelBackgroundColor=none;labelBorderColor=none;whiteSpace=wrap;" vertex="1" parent="9yKTk0pFDlqX_1yLN8jk-99">
          <mxGeometry x="54" width="78" height="21" as="geometry">
            <mxRectangle width="78" height="21" as="alternateBounds" />
          </mxGeometry>
        </mxCell>
        <mxCell id="9yKTk0pFDlqX_1yLN8jk-102" value="Unique" style="shape=partialRectangle;connectable=0;fillColor=none;top=0;left=0;bottom=0;right=0;align=left;spacingLeft=2;overflow=hidden;fontSize=11;shadow=1;labelBackgroundColor=none;labelBorderColor=none;whiteSpace=wrap;" vertex="1" parent="9yKTk0pFDlqX_1yLN8jk-99">
          <mxGeometry x="132" width="204" height="21" as="geometry">
            <mxRectangle width="204" height="21" as="alternateBounds" />
          </mxGeometry>
        </mxCell>
        <mxCell id="9yKTk0pFDlqX_1yLN8jk-103" style="shape=tableRow;horizontal=0;startSize=0;swimlaneHead=0;swimlaneBody=0;fillColor=none;collapsible=0;dropTarget=0;points=[[0,0.5],[1,0.5]];portConstraint=eastwest;top=0;left=0;right=0;bottom=0;shadow=1;labelBackgroundColor=none;labelBorderColor=none;whiteSpace=wrap;" vertex="1" parent="9yKTk0pFDlqX_1yLN8jk-94">
          <mxGeometry y="67" width="336" height="21" as="geometry" />
        </mxCell>
        <mxCell id="9yKTk0pFDlqX_1yLN8jk-104" value="string" style="shape=partialRectangle;connectable=0;fillColor=none;top=0;left=0;bottom=0;right=0;align=left;spacingLeft=2;overflow=hidden;fontSize=11;shadow=1;labelBackgroundColor=none;labelBorderColor=none;whiteSpace=wrap;" vertex="1" parent="9yKTk0pFDlqX_1yLN8jk-103">
          <mxGeometry width="54" height="21" as="geometry">
            <mxRectangle width="54" height="21" as="alternateBounds" />
          </mxGeometry>
        </mxCell>
        <mxCell id="9yKTk0pFDlqX_1yLN8jk-105" value="email" style="shape=partialRectangle;connectable=0;fillColor=none;top=0;left=0;bottom=0;right=0;align=left;spacingLeft=2;overflow=hidden;fontSize=11;shadow=1;labelBackgroundColor=none;labelBorderColor=none;whiteSpace=wrap;" vertex="1" parent="9yKTk0pFDlqX_1yLN8jk-103">
          <mxGeometry x="54" width="78" height="21" as="geometry">
            <mxRectangle width="78" height="21" as="alternateBounds" />
          </mxGeometry>
        </mxCell>
        <mxCell id="9yKTk0pFDlqX_1yLN8jk-106" value="Unique" style="shape=partialRectangle;connectable=0;fillColor=none;top=0;left=0;bottom=0;right=0;align=left;spacingLeft=2;overflow=hidden;fontSize=11;shadow=1;labelBackgroundColor=none;labelBorderColor=none;whiteSpace=wrap;" vertex="1" parent="9yKTk0pFDlqX_1yLN8jk-103">
          <mxGeometry x="132" width="204" height="21" as="geometry">
            <mxRectangle width="204" height="21" as="alternateBounds" />
          </mxGeometry>
        </mxCell>
        <mxCell id="9yKTk0pFDlqX_1yLN8jk-107" style="shape=tableRow;horizontal=0;startSize=0;swimlaneHead=0;swimlaneBody=0;fillColor=none;collapsible=0;dropTarget=0;points=[[0,0.5],[1,0.5]];portConstraint=eastwest;top=0;left=0;right=0;bottom=0;shadow=1;labelBackgroundColor=none;labelBorderColor=none;whiteSpace=wrap;" vertex="1" parent="9yKTk0pFDlqX_1yLN8jk-94">
          <mxGeometry y="88" width="336" height="21" as="geometry" />
        </mxCell>
        <mxCell id="9yKTk0pFDlqX_1yLN8jk-108" value="char[60]" style="shape=partialRectangle;connectable=0;fillColor=none;top=0;left=0;bottom=0;right=0;align=left;spacingLeft=2;overflow=hidden;fontSize=11;shadow=1;labelBackgroundColor=none;labelBorderColor=none;whiteSpace=wrap;" vertex="1" parent="9yKTk0pFDlqX_1yLN8jk-107">
          <mxGeometry width="54" height="21" as="geometry">
            <mxRectangle width="54" height="21" as="alternateBounds" />
          </mxGeometry>
        </mxCell>
        <mxCell id="9yKTk0pFDlqX_1yLN8jk-109" value="password_hash" style="shape=partialRectangle;connectable=0;fillColor=none;top=0;left=0;bottom=0;right=0;align=left;spacingLeft=2;overflow=hidden;fontSize=11;shadow=1;labelBackgroundColor=none;labelBorderColor=none;whiteSpace=wrap;" vertex="1" parent="9yKTk0pFDlqX_1yLN8jk-107">
          <mxGeometry x="54" width="78" height="21" as="geometry">
            <mxRectangle width="78" height="21" as="alternateBounds" />
          </mxGeometry>
        </mxCell>
        <mxCell id="9yKTk0pFDlqX_1yLN8jk-110" value="" style="shape=partialRectangle;connectable=0;fillColor=none;top=0;left=0;bottom=0;right=0;align=left;spacingLeft=2;overflow=hidden;fontSize=11;shadow=1;labelBackgroundColor=none;labelBorderColor=none;whiteSpace=wrap;" vertex="1" parent="9yKTk0pFDlqX_1yLN8jk-107">
          <mxGeometry x="132" width="204" height="21" as="geometry">
            <mxRectangle width="204" height="21" as="alternateBounds" />
          </mxGeometry>
        </mxCell>
        <mxCell id="9yKTk0pFDlqX_1yLN8jk-111" style="shape=tableRow;horizontal=0;startSize=0;swimlaneHead=0;swimlaneBody=0;fillColor=none;collapsible=0;dropTarget=0;points=[[0,0.5],[1,0.5]];portConstraint=eastwest;top=0;left=0;right=0;bottom=0;shadow=1;labelBackgroundColor=none;labelBorderColor=none;whiteSpace=wrap;" vertex="1" parent="9yKTk0pFDlqX_1yLN8jk-94">
          <mxGeometry y="109" width="336" height="21" as="geometry" />
        </mxCell>
        <mxCell id="9yKTk0pFDlqX_1yLN8jk-112" value="text" style="shape=partialRectangle;connectable=0;fillColor=none;top=0;left=0;bottom=0;right=0;align=left;spacingLeft=2;overflow=hidden;fontSize=11;shadow=1;labelBackgroundColor=none;labelBorderColor=none;whiteSpace=wrap;" vertex="1" parent="9yKTk0pFDlqX_1yLN8jk-111">
          <mxGeometry width="54" height="21" as="geometry">
            <mxRectangle width="54" height="21" as="alternateBounds" />
          </mxGeometry>
        </mxCell>
        <mxCell id="9yKTk0pFDlqX_1yLN8jk-113" value="profile_bio" style="shape=partialRectangle;connectable=0;fillColor=none;top=0;left=0;bottom=0;right=0;align=left;spacingLeft=2;overflow=hidden;fontSize=11;shadow=1;labelBackgroundColor=none;labelBorderColor=none;whiteSpace=wrap;" vertex="1" parent="9yKTk0pFDlqX_1yLN8jk-111">
          <mxGeometry x="54" width="78" height="21" as="geometry">
            <mxRectangle width="78" height="21" as="alternateBounds" />
          </mxGeometry>
        </mxCell>
        <mxCell id="9yKTk0pFDlqX_1yLN8jk-114" value="Nullable" style="shape=partialRectangle;connectable=0;fillColor=none;top=0;left=0;bottom=0;right=0;align=left;spacingLeft=2;overflow=hidden;fontSize=11;shadow=1;labelBackgroundColor=none;labelBorderColor=none;whiteSpace=wrap;" vertex="1" parent="9yKTk0pFDlqX_1yLN8jk-111">
          <mxGeometry x="132" width="204" height="21" as="geometry">
            <mxRectangle width="204" height="21" as="alternateBounds" />
          </mxGeometry>
        </mxCell>
        <mxCell id="9yKTk0pFDlqX_1yLN8jk-115" style="shape=tableRow;horizontal=0;startSize=0;swimlaneHead=0;swimlaneBody=0;fillColor=none;collapsible=0;dropTarget=0;points=[[0,0.5],[1,0.5]];portConstraint=eastwest;top=0;left=0;right=0;bottom=0;shadow=1;labelBackgroundColor=none;labelBorderColor=none;whiteSpace=wrap;" vertex="1" parent="9yKTk0pFDlqX_1yLN8jk-94">
          <mxGeometry y="130" width="336" height="21" as="geometry" />
        </mxCell>
        <mxCell id="9yKTk0pFDlqX_1yLN8jk-116" value="timestamp" style="shape=partialRectangle;connectable=0;fillColor=none;top=0;left=0;bottom=0;right=0;align=left;spacingLeft=2;overflow=hidden;fontSize=11;shadow=1;labelBackgroundColor=none;labelBorderColor=none;whiteSpace=wrap;" vertex="1" parent="9yKTk0pFDlqX_1yLN8jk-115">
          <mxGeometry width="54" height="21" as="geometry">
            <mxRectangle width="54" height="21" as="alternateBounds" />
          </mxGeometry>
        </mxCell>
        <mxCell id="9yKTk0pFDlqX_1yLN8jk-117" value="created_at" style="shape=partialRectangle;connectable=0;fillColor=none;top=0;left=0;bottom=0;right=0;align=left;spacingLeft=2;overflow=hidden;fontSize=11;shadow=1;labelBackgroundColor=none;labelBorderColor=none;whiteSpace=wrap;" vertex="1" parent="9yKTk0pFDlqX_1yLN8jk-115">
          <mxGeometry x="54" width="78" height="21" as="geometry">
            <mxRectangle width="78" height="21" as="alternateBounds" />
          </mxGeometry>
        </mxCell>
        <mxCell id="9yKTk0pFDlqX_1yLN8jk-118" value="Default: current timestamp" style="shape=partialRectangle;connectable=0;fillColor=none;top=0;left=0;bottom=0;right=0;align=left;spacingLeft=2;overflow=hidden;fontSize=11;shadow=1;labelBackgroundColor=none;labelBorderColor=none;whiteSpace=wrap;" vertex="1" parent="9yKTk0pFDlqX_1yLN8jk-115">
          <mxGeometry x="132" width="204" height="21" as="geometry">
            <mxRectangle width="204" height="21" as="alternateBounds" />
          </mxGeometry>
        </mxCell>
        <mxCell id="9yKTk0pFDlqX_1yLN8jk-119" value="Posts" style="shape=table;startSize=25;container=1;collapsible=0;childLayout=tableLayout;fixedRows=1;rowLines=1;fontStyle=1;align=center;resizeLast=1;shadow=1;labelBackgroundColor=none;labelBorderColor=none;whiteSpace=wrap;" vertex="1" parent="1">
          <mxGeometry x="436" y="266" width="236" height="130" as="geometry" />
        </mxCell>
        <mxCell id="9yKTk0pFDlqX_1yLN8jk-120" style="shape=tableRow;horizontal=0;startSize=0;swimlaneHead=0;swimlaneBody=0;fillColor=none;collapsible=0;dropTarget=0;points=[[0,0.5],[1,0.5]];portConstraint=eastwest;top=0;left=0;right=0;bottom=0;shadow=1;labelBackgroundColor=none;labelBorderColor=none;whiteSpace=wrap;" vertex="1" parent="9yKTk0pFDlqX_1yLN8jk-119">
          <mxGeometry y="25" width="236" height="21" as="geometry" />
        </mxCell>
        <mxCell id="9yKTk0pFDlqX_1yLN8jk-121" value="int" style="shape=partialRectangle;connectable=0;fillColor=none;top=0;left=0;bottom=0;right=0;align=left;spacingLeft=2;overflow=hidden;fontSize=11;shadow=1;labelBackgroundColor=none;labelBorderColor=none;whiteSpace=wrap;" vertex="1" parent="9yKTk0pFDlqX_1yLN8jk-120">
          <mxGeometry width="54" height="21" as="geometry">
            <mxRectangle width="54" height="21" as="alternateBounds" />
          </mxGeometry>
        </mxCell>
        <mxCell id="9yKTk0pFDlqX_1yLN8jk-122" value="post_id" style="shape=partialRectangle;connectable=0;fillColor=none;top=0;left=0;bottom=0;right=0;align=left;spacingLeft=2;overflow=hidden;fontSize=11;shadow=1;labelBackgroundColor=none;labelBorderColor=none;whiteSpace=wrap;" vertex="1" parent="9yKTk0pFDlqX_1yLN8jk-120">
          <mxGeometry x="54" width="80" height="21" as="geometry">
            <mxRectangle width="80" height="21" as="alternateBounds" />
          </mxGeometry>
        </mxCell>
        <mxCell id="9yKTk0pFDlqX_1yLN8jk-123" value="Auto-incrementing" style="shape=partialRectangle;connectable=0;fillColor=none;top=0;left=0;bottom=0;right=0;align=left;spacingLeft=2;overflow=hidden;fontSize=11;shadow=1;labelBackgroundColor=none;labelBorderColor=none;whiteSpace=wrap;" vertex="1" parent="9yKTk0pFDlqX_1yLN8jk-120">
          <mxGeometry x="134" width="102" height="21" as="geometry">
            <mxRectangle width="102" height="21" as="alternateBounds" />
          </mxGeometry>
        </mxCell>
        <mxCell id="9yKTk0pFDlqX_1yLN8jk-124" style="shape=tableRow;horizontal=0;startSize=0;swimlaneHead=0;swimlaneBody=0;fillColor=none;collapsible=0;dropTarget=0;points=[[0,0.5],[1,0.5]];portConstraint=eastwest;top=0;left=0;right=0;bottom=0;shadow=1;labelBackgroundColor=none;labelBorderColor=none;whiteSpace=wrap;" vertex="1" parent="9yKTk0pFDlqX_1yLN8jk-119">
          <mxGeometry y="46" width="236" height="21" as="geometry" />
        </mxCell>
        <mxCell id="9yKTk0pFDlqX_1yLN8jk-125" value="int" style="shape=partialRectangle;connectable=0;fillColor=none;top=0;left=0;bottom=0;right=0;align=left;spacingLeft=2;overflow=hidden;fontSize=11;shadow=1;labelBackgroundColor=none;labelBorderColor=none;whiteSpace=wrap;" vertex="1" parent="9yKTk0pFDlqX_1yLN8jk-124">
          <mxGeometry width="54" height="21" as="geometry">
            <mxRectangle width="54" height="21" as="alternateBounds" />
          </mxGeometry>
        </mxCell>
        <mxCell id="9yKTk0pFDlqX_1yLN8jk-126" value="user_id" style="shape=partialRectangle;connectable=0;fillColor=none;top=0;left=0;bottom=0;right=0;align=left;spacingLeft=2;overflow=hidden;fontSize=11;shadow=1;labelBackgroundColor=none;labelBorderColor=none;whiteSpace=wrap;" vertex="1" parent="9yKTk0pFDlqX_1yLN8jk-124">
          <mxGeometry x="54" width="80" height="21" as="geometry">
            <mxRectangle width="80" height="21" as="alternateBounds" />
          </mxGeometry>
        </mxCell>
        <mxCell id="9yKTk0pFDlqX_1yLN8jk-127" value="" style="shape=partialRectangle;connectable=0;fillColor=none;top=0;left=0;bottom=0;right=0;align=left;spacingLeft=2;overflow=hidden;fontSize=11;shadow=1;labelBackgroundColor=none;labelBorderColor=none;whiteSpace=wrap;" vertex="1" parent="9yKTk0pFDlqX_1yLN8jk-124">
          <mxGeometry x="134" width="102" height="21" as="geometry">
            <mxRectangle width="102" height="21" as="alternateBounds" />
          </mxGeometry>
        </mxCell>
        <mxCell id="9yKTk0pFDlqX_1yLN8jk-128" style="shape=tableRow;horizontal=0;startSize=0;swimlaneHead=0;swimlaneBody=0;fillColor=none;collapsible=0;dropTarget=0;points=[[0,0.5],[1,0.5]];portConstraint=eastwest;top=0;left=0;right=0;bottom=0;shadow=1;labelBackgroundColor=none;labelBorderColor=none;whiteSpace=wrap;" vertex="1" parent="9yKTk0pFDlqX_1yLN8jk-119">
          <mxGeometry y="67" width="236" height="21" as="geometry" />
        </mxCell>
        <mxCell id="9yKTk0pFDlqX_1yLN8jk-129" value="int" style="shape=partialRectangle;connectable=0;fillColor=none;top=0;left=0;bottom=0;right=0;align=left;spacingLeft=2;overflow=hidden;fontSize=11;shadow=1;labelBackgroundColor=none;labelBorderColor=none;whiteSpace=wrap;" vertex="1" parent="9yKTk0pFDlqX_1yLN8jk-128">
          <mxGeometry width="54" height="21" as="geometry">
            <mxRectangle width="54" height="21" as="alternateBounds" />
          </mxGeometry>
        </mxCell>
        <mxCell id="9yKTk0pFDlqX_1yLN8jk-130" value="course_id" style="shape=partialRectangle;connectable=0;fillColor=none;top=0;left=0;bottom=0;right=0;align=left;spacingLeft=2;overflow=hidden;fontSize=11;shadow=1;labelBackgroundColor=none;labelBorderColor=none;whiteSpace=wrap;" vertex="1" parent="9yKTk0pFDlqX_1yLN8jk-128">
          <mxGeometry x="54" width="80" height="21" as="geometry">
            <mxRectangle width="80" height="21" as="alternateBounds" />
          </mxGeometry>
        </mxCell>
        <mxCell id="9yKTk0pFDlqX_1yLN8jk-131" value="" style="shape=partialRectangle;connectable=0;fillColor=none;top=0;left=0;bottom=0;right=0;align=left;spacingLeft=2;overflow=hidden;fontSize=11;shadow=1;labelBackgroundColor=none;labelBorderColor=none;whiteSpace=wrap;" vertex="1" parent="9yKTk0pFDlqX_1yLN8jk-128">
          <mxGeometry x="134" width="102" height="21" as="geometry">
            <mxRectangle width="102" height="21" as="alternateBounds" />
          </mxGeometry>
        </mxCell>
        <mxCell id="9yKTk0pFDlqX_1yLN8jk-132" style="shape=tableRow;horizontal=0;startSize=0;swimlaneHead=0;swimlaneBody=0;fillColor=none;collapsible=0;dropTarget=0;points=[[0,0.5],[1,0.5]];portConstraint=eastwest;top=0;left=0;right=0;bottom=0;shadow=1;labelBackgroundColor=none;labelBorderColor=none;whiteSpace=wrap;" vertex="1" parent="9yKTk0pFDlqX_1yLN8jk-119">
          <mxGeometry y="88" width="236" height="21" as="geometry" />
        </mxCell>
        <mxCell id="9yKTk0pFDlqX_1yLN8jk-133" value="boolean" style="shape=partialRectangle;connectable=0;fillColor=none;top=0;left=0;bottom=0;right=0;align=left;spacingLeft=2;overflow=hidden;fontSize=11;shadow=1;labelBackgroundColor=none;labelBorderColor=none;whiteSpace=wrap;" vertex="1" parent="9yKTk0pFDlqX_1yLN8jk-132">
          <mxGeometry width="54" height="21" as="geometry">
            <mxRectangle width="54" height="21" as="alternateBounds" />
          </mxGeometry>
        </mxCell>
        <mxCell id="9yKTk0pFDlqX_1yLN8jk-134" value="is_resolved" style="shape=partialRectangle;connectable=0;fillColor=none;top=0;left=0;bottom=0;right=0;align=left;spacingLeft=2;overflow=hidden;fontSize=11;shadow=1;labelBackgroundColor=none;labelBorderColor=none;whiteSpace=wrap;" vertex="1" parent="9yKTk0pFDlqX_1yLN8jk-132">
          <mxGeometry x="54" width="80" height="21" as="geometry">
            <mxRectangle width="80" height="21" as="alternateBounds" />
          </mxGeometry>
        </mxCell>
        <mxCell id="9yKTk0pFDlqX_1yLN8jk-135" value="" style="shape=partialRectangle;connectable=0;fillColor=none;top=0;left=0;bottom=0;right=0;align=left;spacingLeft=2;overflow=hidden;fontSize=11;shadow=1;labelBackgroundColor=none;labelBorderColor=none;whiteSpace=wrap;" vertex="1" parent="9yKTk0pFDlqX_1yLN8jk-132">
          <mxGeometry x="134" width="102" height="21" as="geometry">
            <mxRectangle width="102" height="21" as="alternateBounds" />
          </mxGeometry>
        </mxCell>
        <mxCell id="9yKTk0pFDlqX_1yLN8jk-136" style="shape=tableRow;horizontal=0;startSize=0;swimlaneHead=0;swimlaneBody=0;fillColor=none;collapsible=0;dropTarget=0;points=[[0,0.5],[1,0.5]];portConstraint=eastwest;top=0;left=0;right=0;bottom=0;shadow=1;labelBackgroundColor=none;labelBorderColor=none;whiteSpace=wrap;" vertex="1" parent="9yKTk0pFDlqX_1yLN8jk-119">
          <mxGeometry y="109" width="236" height="21" as="geometry" />
        </mxCell>
        <mxCell id="9yKTk0pFDlqX_1yLN8jk-137" value="timestamp" style="shape=partialRectangle;connectable=0;fillColor=none;top=0;left=0;bottom=0;right=0;align=left;spacingLeft=2;overflow=hidden;fontSize=11;shadow=1;labelBackgroundColor=none;labelBorderColor=none;whiteSpace=wrap;" vertex="1" parent="9yKTk0pFDlqX_1yLN8jk-136">
          <mxGeometry width="54" height="21" as="geometry">
            <mxRectangle width="54" height="21" as="alternateBounds" />
          </mxGeometry>
        </mxCell>
        <mxCell id="9yKTk0pFDlqX_1yLN8jk-138" value="created_at" style="shape=partialRectangle;connectable=0;fillColor=none;top=0;left=0;bottom=0;right=0;align=left;spacingLeft=2;overflow=hidden;fontSize=11;shadow=1;labelBackgroundColor=none;labelBorderColor=none;whiteSpace=wrap;" vertex="1" parent="9yKTk0pFDlqX_1yLN8jk-136">
          <mxGeometry x="54" width="80" height="21" as="geometry">
            <mxRectangle width="80" height="21" as="alternateBounds" />
          </mxGeometry>
        </mxCell>
        <mxCell id="9yKTk0pFDlqX_1yLN8jk-139" value="" style="shape=partialRectangle;connectable=0;fillColor=none;top=0;left=0;bottom=0;right=0;align=left;spacingLeft=2;overflow=hidden;fontSize=11;shadow=1;labelBackgroundColor=none;labelBorderColor=none;whiteSpace=wrap;" vertex="1" parent="9yKTk0pFDlqX_1yLN8jk-136">
          <mxGeometry x="134" width="102" height="21" as="geometry">
            <mxRectangle width="102" height="21" as="alternateBounds" />
          </mxGeometry>
        </mxCell>
        <mxCell id="9yKTk0pFDlqX_1yLN8jk-140" value="Comments" style="shape=table;startSize=25;container=1;collapsible=0;childLayout=tableLayout;fixedRows=1;rowLines=1;fontStyle=1;align=center;resizeLast=1;shadow=1;labelBackgroundColor=none;labelBorderColor=none;whiteSpace=wrap;" vertex="1" parent="1">
          <mxGeometry x="265" y="431" width="165" height="109" as="geometry" />
        </mxCell>
        <mxCell id="9yKTk0pFDlqX_1yLN8jk-141" style="shape=tableRow;horizontal=0;startSize=0;swimlaneHead=0;swimlaneBody=0;fillColor=none;collapsible=0;dropTarget=0;points=[[0,0.5],[1,0.5]];portConstraint=eastwest;top=0;left=0;right=0;bottom=0;shadow=1;labelBackgroundColor=none;labelBorderColor=none;whiteSpace=wrap;" vertex="1" parent="9yKTk0pFDlqX_1yLN8jk-140">
          <mxGeometry y="25" width="165" height="21" as="geometry" />
        </mxCell>
        <mxCell id="9yKTk0pFDlqX_1yLN8jk-142" value="int" style="shape=partialRectangle;connectable=0;fillColor=none;top=0;left=0;bottom=0;right=0;align=left;spacingLeft=2;overflow=hidden;fontSize=11;shadow=1;labelBackgroundColor=none;labelBorderColor=none;whiteSpace=wrap;" vertex="1" parent="9yKTk0pFDlqX_1yLN8jk-141">
          <mxGeometry width="65" height="21" as="geometry">
            <mxRectangle width="65" height="21" as="alternateBounds" />
          </mxGeometry>
        </mxCell>
        <mxCell id="9yKTk0pFDlqX_1yLN8jk-143" value="comment_id" style="shape=partialRectangle;connectable=0;fillColor=none;top=0;left=0;bottom=0;right=0;align=left;spacingLeft=2;overflow=hidden;fontSize=11;shadow=1;labelBackgroundColor=none;labelBorderColor=none;whiteSpace=wrap;" vertex="1" parent="9yKTk0pFDlqX_1yLN8jk-141">
          <mxGeometry x="65" width="100" height="21" as="geometry">
            <mxRectangle width="100" height="21" as="alternateBounds" />
          </mxGeometry>
        </mxCell>
        <mxCell id="9yKTk0pFDlqX_1yLN8jk-144" style="shape=tableRow;horizontal=0;startSize=0;swimlaneHead=0;swimlaneBody=0;fillColor=none;collapsible=0;dropTarget=0;points=[[0,0.5],[1,0.5]];portConstraint=eastwest;top=0;left=0;right=0;bottom=0;shadow=1;labelBackgroundColor=none;labelBorderColor=none;whiteSpace=wrap;" vertex="1" parent="9yKTk0pFDlqX_1yLN8jk-140">
          <mxGeometry y="46" width="165" height="21" as="geometry" />
        </mxCell>
        <mxCell id="9yKTk0pFDlqX_1yLN8jk-145" value="int" style="shape=partialRectangle;connectable=0;fillColor=none;top=0;left=0;bottom=0;right=0;align=left;spacingLeft=2;overflow=hidden;fontSize=11;shadow=1;labelBackgroundColor=none;labelBorderColor=none;whiteSpace=wrap;" vertex="1" parent="9yKTk0pFDlqX_1yLN8jk-144">
          <mxGeometry width="65" height="21" as="geometry">
            <mxRectangle width="65" height="21" as="alternateBounds" />
          </mxGeometry>
        </mxCell>
        <mxCell id="9yKTk0pFDlqX_1yLN8jk-146" value="post_id" style="shape=partialRectangle;connectable=0;fillColor=none;top=0;left=0;bottom=0;right=0;align=left;spacingLeft=2;overflow=hidden;fontSize=11;shadow=1;labelBackgroundColor=none;labelBorderColor=none;whiteSpace=wrap;" vertex="1" parent="9yKTk0pFDlqX_1yLN8jk-144">
          <mxGeometry x="65" width="100" height="21" as="geometry">
            <mxRectangle width="100" height="21" as="alternateBounds" />
          </mxGeometry>
        </mxCell>
        <mxCell id="9yKTk0pFDlqX_1yLN8jk-147" style="shape=tableRow;horizontal=0;startSize=0;swimlaneHead=0;swimlaneBody=0;fillColor=none;collapsible=0;dropTarget=0;points=[[0,0.5],[1,0.5]];portConstraint=eastwest;top=0;left=0;right=0;bottom=0;shadow=1;labelBackgroundColor=none;labelBorderColor=none;whiteSpace=wrap;" vertex="1" parent="9yKTk0pFDlqX_1yLN8jk-140">
          <mxGeometry y="67" width="165" height="21" as="geometry" />
        </mxCell>
        <mxCell id="9yKTk0pFDlqX_1yLN8jk-148" value="int" style="shape=partialRectangle;connectable=0;fillColor=none;top=0;left=0;bottom=0;right=0;align=left;spacingLeft=2;overflow=hidden;fontSize=11;shadow=1;labelBackgroundColor=none;labelBorderColor=none;whiteSpace=wrap;" vertex="1" parent="9yKTk0pFDlqX_1yLN8jk-147">
          <mxGeometry width="65" height="21" as="geometry">
            <mxRectangle width="65" height="21" as="alternateBounds" />
          </mxGeometry>
        </mxCell>
        <mxCell id="9yKTk0pFDlqX_1yLN8jk-149" value="user_id" style="shape=partialRectangle;connectable=0;fillColor=none;top=0;left=0;bottom=0;right=0;align=left;spacingLeft=2;overflow=hidden;fontSize=11;shadow=1;labelBackgroundColor=none;labelBorderColor=none;whiteSpace=wrap;" vertex="1" parent="9yKTk0pFDlqX_1yLN8jk-147">
          <mxGeometry x="65" width="100" height="21" as="geometry">
            <mxRectangle width="100" height="21" as="alternateBounds" />
          </mxGeometry>
        </mxCell>
        <mxCell id="9yKTk0pFDlqX_1yLN8jk-150" style="shape=tableRow;horizontal=0;startSize=0;swimlaneHead=0;swimlaneBody=0;fillColor=none;collapsible=0;dropTarget=0;points=[[0,0.5],[1,0.5]];portConstraint=eastwest;top=0;left=0;right=0;bottom=0;shadow=1;labelBackgroundColor=none;labelBorderColor=none;whiteSpace=wrap;" vertex="1" parent="9yKTk0pFDlqX_1yLN8jk-140">
          <mxGeometry y="88" width="165" height="21" as="geometry" />
        </mxCell>
        <mxCell id="9yKTk0pFDlqX_1yLN8jk-151" value="timestamp" style="shape=partialRectangle;connectable=0;fillColor=none;top=0;left=0;bottom=0;right=0;align=left;spacingLeft=2;overflow=hidden;fontSize=11;shadow=1;labelBackgroundColor=none;labelBorderColor=none;whiteSpace=wrap;" vertex="1" parent="9yKTk0pFDlqX_1yLN8jk-150">
          <mxGeometry width="65" height="21" as="geometry">
            <mxRectangle width="65" height="21" as="alternateBounds" />
          </mxGeometry>
        </mxCell>
        <mxCell id="9yKTk0pFDlqX_1yLN8jk-152" value="created_at" style="shape=partialRectangle;connectable=0;fillColor=none;top=0;left=0;bottom=0;right=0;align=left;spacingLeft=2;overflow=hidden;fontSize=11;shadow=1;labelBackgroundColor=none;labelBorderColor=none;whiteSpace=wrap;" vertex="1" parent="9yKTk0pFDlqX_1yLN8jk-150">
          <mxGeometry x="65" width="100" height="21" as="geometry">
            <mxRectangle width="100" height="21" as="alternateBounds" />
          </mxGeometry>
        </mxCell>
        <mxCell id="9yKTk0pFDlqX_1yLN8jk-153" value="Courses" style="shape=table;startSize=25;container=1;collapsible=0;childLayout=tableLayout;fixedRows=1;rowLines=1;fontStyle=1;align=center;resizeLast=1;shadow=1;labelBackgroundColor=none;labelBorderColor=none;whiteSpace=wrap;" vertex="1" parent="1">
          <mxGeometry x="470" y="51" width="202" height="88" as="geometry" />
        </mxCell>
        <mxCell id="9yKTk0pFDlqX_1yLN8jk-154" style="shape=tableRow;horizontal=0;startSize=0;swimlaneHead=0;swimlaneBody=0;fillColor=none;collapsible=0;dropTarget=0;points=[[0,0.5],[1,0.5]];portConstraint=eastwest;top=0;left=0;right=0;bottom=0;shadow=1;labelBackgroundColor=none;labelBorderColor=none;whiteSpace=wrap;" vertex="1" parent="9yKTk0pFDlqX_1yLN8jk-153">
          <mxGeometry y="25" width="202" height="21" as="geometry" />
        </mxCell>
        <mxCell id="9yKTk0pFDlqX_1yLN8jk-155" value="int" style="shape=partialRectangle;connectable=0;fillColor=none;top=0;left=0;bottom=0;right=0;align=left;spacingLeft=2;overflow=hidden;fontSize=11;shadow=1;labelBackgroundColor=none;labelBorderColor=none;whiteSpace=wrap;" vertex="1" parent="9yKTk0pFDlqX_1yLN8jk-154">
          <mxGeometry width="36" height="21" as="geometry">
            <mxRectangle width="36" height="21" as="alternateBounds" />
          </mxGeometry>
        </mxCell>
        <mxCell id="9yKTk0pFDlqX_1yLN8jk-156" value="course_id" style="shape=partialRectangle;connectable=0;fillColor=none;top=0;left=0;bottom=0;right=0;align=left;spacingLeft=2;overflow=hidden;fontSize=11;shadow=1;labelBackgroundColor=none;labelBorderColor=none;whiteSpace=wrap;" vertex="1" parent="9yKTk0pFDlqX_1yLN8jk-154">
          <mxGeometry x="36" width="118" height="21" as="geometry">
            <mxRectangle width="118" height="21" as="alternateBounds" />
          </mxGeometry>
        </mxCell>
        <mxCell id="9yKTk0pFDlqX_1yLN8jk-157" value="" style="shape=partialRectangle;connectable=0;fillColor=none;top=0;left=0;bottom=0;right=0;align=left;spacingLeft=2;overflow=hidden;fontSize=11;shadow=1;labelBackgroundColor=none;labelBorderColor=none;whiteSpace=wrap;" vertex="1" parent="9yKTk0pFDlqX_1yLN8jk-154">
          <mxGeometry x="154" width="48" height="21" as="geometry">
            <mxRectangle width="48" height="21" as="alternateBounds" />
          </mxGeometry>
        </mxCell>
        <mxCell id="9yKTk0pFDlqX_1yLN8jk-158" style="shape=tableRow;horizontal=0;startSize=0;swimlaneHead=0;swimlaneBody=0;fillColor=none;collapsible=0;dropTarget=0;points=[[0,0.5],[1,0.5]];portConstraint=eastwest;top=0;left=0;right=0;bottom=0;shadow=1;labelBackgroundColor=none;labelBorderColor=none;whiteSpace=wrap;" vertex="1" parent="9yKTk0pFDlqX_1yLN8jk-153">
          <mxGeometry y="46" width="202" height="21" as="geometry" />
        </mxCell>
        <mxCell id="9yKTk0pFDlqX_1yLN8jk-159" value="string" style="shape=partialRectangle;connectable=0;fillColor=none;top=0;left=0;bottom=0;right=0;align=left;spacingLeft=2;overflow=hidden;fontSize=11;shadow=1;labelBackgroundColor=none;labelBorderColor=none;whiteSpace=wrap;" vertex="1" parent="9yKTk0pFDlqX_1yLN8jk-158">
          <mxGeometry width="36" height="21" as="geometry">
            <mxRectangle width="36" height="21" as="alternateBounds" />
          </mxGeometry>
        </mxCell>
        <mxCell id="9yKTk0pFDlqX_1yLN8jk-160" value="course_name" style="shape=partialRectangle;connectable=0;fillColor=none;top=0;left=0;bottom=0;right=0;align=left;spacingLeft=2;overflow=hidden;fontSize=11;shadow=1;labelBackgroundColor=none;labelBorderColor=none;whiteSpace=wrap;" vertex="1" parent="9yKTk0pFDlqX_1yLN8jk-158">
          <mxGeometry x="36" width="118" height="21" as="geometry">
            <mxRectangle width="118" height="21" as="alternateBounds" />
          </mxGeometry>
        </mxCell>
        <mxCell id="9yKTk0pFDlqX_1yLN8jk-161" value="Unique" style="shape=partialRectangle;connectable=0;fillColor=none;top=0;left=0;bottom=0;right=0;align=left;spacingLeft=2;overflow=hidden;fontSize=11;shadow=1;labelBackgroundColor=none;labelBorderColor=none;whiteSpace=wrap;" vertex="1" parent="9yKTk0pFDlqX_1yLN8jk-158">
          <mxGeometry x="154" width="48" height="21" as="geometry">
            <mxRectangle width="48" height="21" as="alternateBounds" />
          </mxGeometry>
        </mxCell>
        <mxCell id="9yKTk0pFDlqX_1yLN8jk-162" style="shape=tableRow;horizontal=0;startSize=0;swimlaneHead=0;swimlaneBody=0;fillColor=none;collapsible=0;dropTarget=0;points=[[0,0.5],[1,0.5]];portConstraint=eastwest;top=0;left=0;right=0;bottom=0;shadow=1;labelBackgroundColor=none;labelBorderColor=none;whiteSpace=wrap;" vertex="1" parent="9yKTk0pFDlqX_1yLN8jk-153">
          <mxGeometry y="67" width="202" height="21" as="geometry" />
        </mxCell>
        <mxCell id="9yKTk0pFDlqX_1yLN8jk-163" value="text" style="shape=partialRectangle;connectable=0;fillColor=none;top=0;left=0;bottom=0;right=0;align=left;spacingLeft=2;overflow=hidden;fontSize=11;shadow=1;labelBackgroundColor=none;labelBorderColor=none;whiteSpace=wrap;" vertex="1" parent="9yKTk0pFDlqX_1yLN8jk-162">
          <mxGeometry width="36" height="21" as="geometry">
            <mxRectangle width="36" height="21" as="alternateBounds" />
          </mxGeometry>
        </mxCell>
        <mxCell id="9yKTk0pFDlqX_1yLN8jk-164" value="course_description" style="shape=partialRectangle;connectable=0;fillColor=none;top=0;left=0;bottom=0;right=0;align=left;spacingLeft=2;overflow=hidden;fontSize=11;shadow=1;labelBackgroundColor=none;labelBorderColor=none;whiteSpace=wrap;" vertex="1" parent="9yKTk0pFDlqX_1yLN8jk-162">
          <mxGeometry x="36" width="118" height="21" as="geometry">
            <mxRectangle width="118" height="21" as="alternateBounds" />
          </mxGeometry>
        </mxCell>
        <mxCell id="9yKTk0pFDlqX_1yLN8jk-165" value="Nullable" style="shape=partialRectangle;connectable=0;fillColor=none;top=0;left=0;bottom=0;right=0;align=left;spacingLeft=2;overflow=hidden;fontSize=11;shadow=1;labelBackgroundColor=none;labelBorderColor=none;whiteSpace=wrap;" vertex="1" parent="9yKTk0pFDlqX_1yLN8jk-162">
          <mxGeometry x="154" width="48" height="21" as="geometry">
            <mxRectangle width="48" height="21" as="alternateBounds" />
          </mxGeometry>
        </mxCell>
        <mxCell id="9yKTk0pFDlqX_1yLN8jk-166" value="Study_Sessions" style="shape=table;startSize=25;container=1;collapsible=0;childLayout=tableLayout;fixedRows=1;rowLines=1;fontStyle=1;align=center;resizeLast=1;shadow=1;labelBackgroundColor=none;labelBorderColor=none;whiteSpace=wrap;" vertex="1" parent="1">
          <mxGeometry x="110" y="281" width="155" height="109" as="geometry" />
        </mxCell>
        <mxCell id="9yKTk0pFDlqX_1yLN8jk-167" style="shape=tableRow;horizontal=0;startSize=0;swimlaneHead=0;swimlaneBody=0;fillColor=none;collapsible=0;dropTarget=0;points=[[0,0.5],[1,0.5]];portConstraint=eastwest;top=0;left=0;right=0;bottom=0;shadow=1;labelBackgroundColor=none;labelBorderColor=none;whiteSpace=wrap;" vertex="1" parent="9yKTk0pFDlqX_1yLN8jk-166">
          <mxGeometry y="25" width="155" height="21" as="geometry" />
        </mxCell>
        <mxCell id="9yKTk0pFDlqX_1yLN8jk-168" value="int" style="shape=partialRectangle;connectable=0;fillColor=none;top=0;left=0;bottom=0;right=0;align=left;spacingLeft=2;overflow=hidden;fontSize=11;shadow=1;labelBackgroundColor=none;labelBorderColor=none;whiteSpace=wrap;" vertex="1" parent="9yKTk0pFDlqX_1yLN8jk-167">
          <mxGeometry width="48" height="21" as="geometry">
            <mxRectangle width="48" height="21" as="alternateBounds" />
          </mxGeometry>
        </mxCell>
        <mxCell id="9yKTk0pFDlqX_1yLN8jk-169" value="session_id" style="shape=partialRectangle;connectable=0;fillColor=none;top=0;left=0;bottom=0;right=0;align=left;spacingLeft=2;overflow=hidden;fontSize=11;shadow=1;labelBackgroundColor=none;labelBorderColor=none;whiteSpace=wrap;" vertex="1" parent="9yKTk0pFDlqX_1yLN8jk-167">
          <mxGeometry x="48" width="107" height="21" as="geometry">
            <mxRectangle width="107" height="21" as="alternateBounds" />
          </mxGeometry>
        </mxCell>
        <mxCell id="9yKTk0pFDlqX_1yLN8jk-170" style="shape=tableRow;horizontal=0;startSize=0;swimlaneHead=0;swimlaneBody=0;fillColor=none;collapsible=0;dropTarget=0;points=[[0,0.5],[1,0.5]];portConstraint=eastwest;top=0;left=0;right=0;bottom=0;shadow=1;labelBackgroundColor=none;labelBorderColor=none;whiteSpace=wrap;" vertex="1" parent="9yKTk0pFDlqX_1yLN8jk-166">
          <mxGeometry y="46" width="155" height="21" as="geometry" />
        </mxCell>
        <mxCell id="9yKTk0pFDlqX_1yLN8jk-171" value="int" style="shape=partialRectangle;connectable=0;fillColor=none;top=0;left=0;bottom=0;right=0;align=left;spacingLeft=2;overflow=hidden;fontSize=11;shadow=1;labelBackgroundColor=none;labelBorderColor=none;whiteSpace=wrap;" vertex="1" parent="9yKTk0pFDlqX_1yLN8jk-170">
          <mxGeometry width="48" height="21" as="geometry">
            <mxRectangle width="48" height="21" as="alternateBounds" />
          </mxGeometry>
        </mxCell>
        <mxCell id="9yKTk0pFDlqX_1yLN8jk-172" value="course_id" style="shape=partialRectangle;connectable=0;fillColor=none;top=0;left=0;bottom=0;right=0;align=left;spacingLeft=2;overflow=hidden;fontSize=11;shadow=1;labelBackgroundColor=none;labelBorderColor=none;whiteSpace=wrap;" vertex="1" parent="9yKTk0pFDlqX_1yLN8jk-170">
          <mxGeometry x="48" width="107" height="21" as="geometry">
            <mxRectangle width="107" height="21" as="alternateBounds" />
          </mxGeometry>
        </mxCell>
        <mxCell id="9yKTk0pFDlqX_1yLN8jk-173" style="shape=tableRow;horizontal=0;startSize=0;swimlaneHead=0;swimlaneBody=0;fillColor=none;collapsible=0;dropTarget=0;points=[[0,0.5],[1,0.5]];portConstraint=eastwest;top=0;left=0;right=0;bottom=0;shadow=1;labelBackgroundColor=none;labelBorderColor=none;whiteSpace=wrap;" vertex="1" parent="9yKTk0pFDlqX_1yLN8jk-166">
          <mxGeometry y="67" width="155" height="21" as="geometry" />
        </mxCell>
        <mxCell id="9yKTk0pFDlqX_1yLN8jk-174" value="int" style="shape=partialRectangle;connectable=0;fillColor=none;top=0;left=0;bottom=0;right=0;align=left;spacingLeft=2;overflow=hidden;fontSize=11;shadow=1;labelBackgroundColor=none;labelBorderColor=none;whiteSpace=wrap;" vertex="1" parent="9yKTk0pFDlqX_1yLN8jk-173">
          <mxGeometry width="48" height="21" as="geometry">
            <mxRectangle width="48" height="21" as="alternateBounds" />
          </mxGeometry>
        </mxCell>
        <mxCell id="9yKTk0pFDlqX_1yLN8jk-175" value="initiator_user_id" style="shape=partialRectangle;connectable=0;fillColor=none;top=0;left=0;bottom=0;right=0;align=left;spacingLeft=2;overflow=hidden;fontSize=11;shadow=1;labelBackgroundColor=none;labelBorderColor=none;whiteSpace=wrap;" vertex="1" parent="9yKTk0pFDlqX_1yLN8jk-173">
          <mxGeometry x="48" width="107" height="21" as="geometry">
            <mxRectangle width="107" height="21" as="alternateBounds" />
          </mxGeometry>
        </mxCell>
        <mxCell id="9yKTk0pFDlqX_1yLN8jk-176" style="shape=tableRow;horizontal=0;startSize=0;swimlaneHead=0;swimlaneBody=0;fillColor=none;collapsible=0;dropTarget=0;points=[[0,0.5],[1,0.5]];portConstraint=eastwest;top=0;left=0;right=0;bottom=0;shadow=1;labelBackgroundColor=none;labelBorderColor=none;whiteSpace=wrap;" vertex="1" parent="9yKTk0pFDlqX_1yLN8jk-166">
          <mxGeometry y="88" width="155" height="21" as="geometry" />
        </mxCell>
        <mxCell id="9yKTk0pFDlqX_1yLN8jk-177" value="datetime" style="shape=partialRectangle;connectable=0;fillColor=none;top=0;left=0;bottom=0;right=0;align=left;spacingLeft=2;overflow=hidden;fontSize=11;shadow=1;labelBackgroundColor=none;labelBorderColor=none;whiteSpace=wrap;" vertex="1" parent="9yKTk0pFDlqX_1yLN8jk-176">
          <mxGeometry width="48" height="21" as="geometry">
            <mxRectangle width="48" height="21" as="alternateBounds" />
          </mxGeometry>
        </mxCell>
        <mxCell id="9yKTk0pFDlqX_1yLN8jk-178" value="scheduled_time" style="shape=partialRectangle;connectable=0;fillColor=none;top=0;left=0;bottom=0;right=0;align=left;spacingLeft=2;overflow=hidden;fontSize=11;shadow=1;labelBackgroundColor=none;labelBorderColor=none;whiteSpace=wrap;" vertex="1" parent="9yKTk0pFDlqX_1yLN8jk-176">
          <mxGeometry x="48" width="107" height="21" as="geometry">
            <mxRectangle width="107" height="21" as="alternateBounds" />
          </mxGeometry>
        </mxCell>
        <mxCell id="9yKTk0pFDlqX_1yLN8jk-179" value="has" style="curved=0;startArrow=ERmandOne;startSize=10;;endArrow=ERmany;endSize=10;;entryX=0.15535483615455392;entryY=0;rounded=0;exitX=1.002;exitY=0.952;exitDx=0;exitDy=0;exitPerimeter=0;shadow=1;labelBackgroundColor=none;labelBorderColor=none;" edge="1" parent="1" source="9yKTk0pFDlqX_1yLN8jk-111">
          <mxGeometry x="-0.0025" y="10" relative="1" as="geometry">
            <Array as="points">
              <mxPoint x="430" y="141" />
              <mxPoint x="430" y="171" />
              <mxPoint x="510" y="171" />
            </Array>
            <mxPoint x="330" y="181" as="sourcePoint" />
            <mxPoint x="509.1037413324748" y="266" as="targetPoint" />
            <mxPoint as="offset" />
          </mxGeometry>
        </mxCell>
        <mxCell id="9yKTk0pFDlqX_1yLN8jk-180" value="makes" style="curved=0;startArrow=ERmandOne;startSize=10;;endArrow=ERmany;endSize=10;;entryX=0.007;entryY=0.181;rounded=0;entryDx=0;entryDy=0;entryPerimeter=0;shadow=1;labelBackgroundColor=none;labelBorderColor=none;" edge="1" parent="1" target="9yKTk0pFDlqX_1yLN8jk-140">
          <mxGeometry x="0.0077" y="-20" relative="1" as="geometry">
            <Array as="points">
              <mxPoint x="60" y="211" />
              <mxPoint x="60" y="451" />
            </Array>
            <mxPoint x="60" y="161" as="sourcePoint" />
            <mxPoint as="offset" />
          </mxGeometry>
        </mxCell>
        <mxCell id="9yKTk0pFDlqX_1yLN8jk-181" value="includes" style="curved=0;startArrow=ERmandOne;startSize=10;;endArrow=ERmany;endSize=10;;exitX=0.484;exitY=1.012;entryX=1.003;entryY=0.183;rounded=0;exitDx=0;exitDy=0;exitPerimeter=0;shadow=1;labelBackgroundColor=none;labelBorderColor=none;entryDx=0;entryDy=0;entryPerimeter=0;" edge="1" parent="1" source="9yKTk0pFDlqX_1yLN8jk-136" target="9yKTk0pFDlqX_1yLN8jk-140">
          <mxGeometry x="0.0875" y="-10" relative="1" as="geometry">
            <Array as="points">
              <mxPoint x="550" y="451" />
            </Array>
            <mxPoint as="offset" />
          </mxGeometry>
        </mxCell>
        <mxCell id="9yKTk0pFDlqX_1yLN8jk-182" value="categorized under" style="curved=0;startArrow=ERmandOne;startSize=10;;endArrow=ERmany;endSize=10;;entryX=0.5933523351033902;entryY=0;rounded=0;exitX=0.606;exitY=0.976;exitDx=0;exitDy=0;exitPerimeter=0;shadow=1;labelBackgroundColor=none;labelBorderColor=none;" edge="1" parent="1" source="9yKTk0pFDlqX_1yLN8jk-162">
          <mxGeometry x="-0.0015" y="59" relative="1" as="geometry">
            <Array as="points" />
            <mxPoint x="590" y="141" as="sourcePoint" />
            <mxPoint x="591.8011510844001" y="266" as="targetPoint" />
            <mxPoint as="offset" />
          </mxGeometry>
        </mxCell>
        <mxCell id="9yKTk0pFDlqX_1yLN8jk-183" value="related to" style="curved=0;startArrow=ERmandOne;startSize=10;;endArrow=ERmany;endSize=10;;exitX=-0.004;exitY=0.69;entryX=0.774;entryY=0;rounded=0;entryDx=0;entryDy=0;entryPerimeter=0;exitDx=0;exitDy=0;exitPerimeter=0;shadow=1;labelBackgroundColor=none;labelBorderColor=none;" edge="1" parent="1" source="9yKTk0pFDlqX_1yLN8jk-154" target="9yKTk0pFDlqX_1yLN8jk-166">
          <mxGeometry x="0.1612" y="-10" relative="1" as="geometry">
            <Array as="points">
              <mxPoint x="410" y="91" />
              <mxPoint x="410" y="251" />
              <mxPoint x="230" y="251" />
            </Array>
            <mxPoint as="offset" />
          </mxGeometry>
        </mxCell>
        <mxCell id="9yKTk0pFDlqX_1yLN8jk-184" value="initiates" style="curved=0;startArrow=ERmandOne;startSize=10;;endArrow=ERmany;endSize=10;;exitX=0.542;exitY=1.036;entryX=0.6554115436197688;entryY=-0.004629629629629629;rounded=0;exitDx=0;exitDy=0;exitPerimeter=0;shadow=1;labelBackgroundColor=none;labelBorderColor=none;" edge="1" parent="1">
          <mxGeometry x="0.1569" y="29" relative="1" as="geometry">
            <Array as="points">
              <mxPoint x="161" y="211" />
            </Array>
            <mxPoint x="161.11200000000008" y="162.75599999999997" as="sourcePoint" />
            <mxPoint x="161.36779119444896" y="281" as="targetPoint" />
            <mxPoint as="offset" />
          </mxGeometry>
        </mxCell>
      </root>
    </mxGraphModel>
  </diagram>
</mxfile>
